<?xml version="1.0" encoding="UTF-8" standalone="no"?>
<!DOCTYPE svg PUBLIC "-//W3C//DTD SVG 1.1//EN" "http://www.w3.org/Graphics/SVG/1.1/DTD/svg11.dtd">
<svg width="100%" height="100%" viewBox="0 0 1000 1000" version="1.1" xmlns="http://www.w3.org/2000/svg" xmlns:xlink="http://www.w3.org/1999/xlink" xml:space="preserve" xmlns:serif="http://www.serif.com/" style="fill-rule:evenodd;clip-rule:evenodd;stroke-linejoin:round;stroke-miterlimit:2;">
    <g id="Layer1">
    </g>
    <g transform="matrix(43.17475,0,0,43.17475,-18.097002,-57.2565)">
        <path d="M12.593,23.258L12.582,23.26L12.511,23.295L12.491,23.299L12.477,23.295L12.406,23.26C12.395,23.257 12.387,23.258 12.382,23.265L12.378,23.275L12.361,23.703L12.366,23.723L12.376,23.736L12.48,23.81L12.495,23.814L12.507,23.81L12.611,23.736L12.623,23.72L12.627,23.703L12.61,23.276C12.607,23.265 12.602,23.259 12.593,23.258M12.858,23.145L12.845,23.147L12.66,23.24L12.65,23.25L12.647,23.261L12.665,23.691L12.67,23.703L12.678,23.71L12.879,23.803C12.892,23.806 12.901,23.804 12.908,23.795L12.912,23.781L12.878,23.167C12.875,23.155 12.868,23.148 12.858,23.145M12.143,23.147C12.134,23.141 12.122,23.144 12.116,23.153L12.11,23.167L12.076,23.781C12.077,23.793 12.082,23.801 12.093,23.805L12.108,23.803L12.309,23.71L12.319,23.702L12.323,23.691L12.34,23.261L12.337,23.249L12.327,23.239L12.143,23.147Z" style="fill:none;fill-rule:nonzero;"/>
        <g transform="matrix(1,0,0,1,-0,0.907)">
            <path d="M12,2C17.523,2 22,6.477 22,12C22,17.523 17.523,22 12,22C6.477,22 2,17.523 2,12C2,6.477 6.477,2 12,2M16.243,7.757C15.889,7.404 11.293,8.464 9.879,9.879C8.465,11.293 7.404,15.889 7.757,16.243C8.111,16.596 12.707,15.536 14.121,14.121C15.536,12.707 16.596,8.111 16.243,7.757M12,11C12.549,11 13,11.451 13,12C13,12.549 12.549,13 12,13C11.451,13 11,12.549 11,12C11,11.451 11.451,11 12,11" style="fill:white;fill-rule:nonzero;"/>
        </g>
    </g>
</svg>
